<svg width="37" height="37" viewBox="0 0 37 37" fill="none" xmlns="http://www.w3.org/2000/svg">
<g filter="url(#filter0_i_45_66)">
<path fill-rule="evenodd" clip-rule="evenodd" d="M22.8298 3.93617C22.8298 1.76228 21.0675 0 18.8936 0C16.7197 0 14.9574 1.76228 14.9574 3.93617L14.9574 14.9574H3.93617C1.76228 14.9574 0 16.7197 0 18.8936C0 21.0675 1.76228 22.8298 3.93617 22.8298H14.9574L14.9574 33.0638C14.9574 35.2377 16.7197 37 18.8936 37C21.0675 37 22.8298 35.2377 22.8298 33.0638V22.8298H33.0638C35.2377 22.8298 37 21.0675 37 18.8936C37 16.7197 35.2377 14.9574 33.0638 14.9574H22.8298V3.93617Z" fill="#F2EBE6"/>
</g>
<defs>
<filter id="filter0_i_45_66" x="-2" y="0" width="39" height="39" filterUnits="userSpaceOnUse" color-interpolation-filters="sRGB">
<feFlood flood-opacity="0" result="BackgroundImageFix"/>
<feBlend mode="normal" in="SourceGraphic" in2="BackgroundImageFix" result="shape"/>
<feColorMatrix in="SourceAlpha" type="matrix" values="0 0 0 0 0 0 0 0 0 0 0 0 0 0 0 0 0 0 127 0" result="hardAlpha"/>
<feOffset dx="-2" dy="2"/>
<feGaussianBlur stdDeviation="2"/>
<feComposite in2="hardAlpha" operator="arithmetic" k2="-1" k3="1"/>
<feColorMatrix type="matrix" values="0 0 0 0 0.69375 0 0 0 0 0.69375 0 0 0 0 0.69375 0 0 0 1 0"/>
<feBlend mode="normal" in2="shape" result="effect1_innerShadow_45_66"/>
</filter>
</defs>
</svg>
