<svg width="45" height="43" viewBox="0 0 45 43" fill="none" xmlns="http://www.w3.org/2000/svg">
<path d="M19.5649 2.78115C20.463 0.0172215 24.3732 0.0172215 25.2712 2.78115L28.3493 12.2544C28.7509 13.4905 29.9028 14.3274 31.2025 14.3274L41.1633 14.3274C44.0694 14.3274 45.2778 18.0462 42.9266 19.7544L34.8682 25.6093C33.8167 26.3732 33.3767 27.7273 33.7784 28.9634L36.8564 38.4366C37.7545 41.2006 34.591 43.4989 32.2399 41.7907L24.1814 35.9359C23.13 35.172 21.7062 35.172 20.6547 35.9359L12.5963 41.7907C10.2451 43.4989 7.08168 41.2006 7.97973 38.4366L11.0578 28.9634C11.4594 27.7273 11.0194 26.3732 9.96798 25.6093L1.90952 19.7544C-0.441623 18.0462 0.766704 14.3274 3.67287 14.3274L13.6337 14.3274C14.9334 14.3274 16.0852 13.4905 16.4868 12.2544L19.5649 2.78115Z" fill="#ACD3E0"/>
</svg>
