<svg width="36" height="33" viewBox="0 0 36 33" fill="none" xmlns="http://www.w3.org/2000/svg">
<path d="M15.6642 1.88784C16.3827 -0.323304 19.5109 -0.323308 20.2293 1.88784L22.6173 9.23742C22.9386 10.2263 23.8601 10.8958 24.8999 10.8958L32.6277 10.8958C34.9526 10.8958 35.9193 13.8709 34.0384 15.2374L27.7864 19.7797C26.9453 20.3909 26.5933 21.4741 26.9146 22.463L29.3026 29.8126C30.021 32.0237 27.4903 33.8624 25.6094 32.4959L19.3574 27.9536C18.5163 27.3424 17.3772 27.3424 16.5361 27.9536L10.2841 32.4959C8.40323 33.8624 5.87248 32.0237 6.59092 29.8126L8.97895 22.463C9.30025 21.4741 8.94827 20.3909 8.1071 19.7797L1.85517 15.2374C-0.0257446 13.8709 0.940913 10.8958 3.26585 10.8958L10.9937 10.8958C12.0334 10.8958 12.9549 10.2263 13.2762 9.23742L15.6642 1.88784Z" fill="#EBE1DA"/>
</svg>
