<svg width="27" height="24" viewBox="0 0 27 24" fill="none" xmlns="http://www.w3.org/2000/svg">
<g filter="url(#filter0_i_12_332)">
<path fill-rule="evenodd" clip-rule="evenodd" d="M3.25392 13.6832C1.28857 12.3309 0 10.066 0 7.50001C0 3.35787 3.35787 0 7.50001 0C9.86629 0 12.0182 1.55967 13.4284 3.66926C14.9047 1.55967 17.1337 0 19.5 0C23.6421 0 27 3.35787 27 7.50001C27 9.93578 25.8389 12.1004 24.0399 13.4704C24.004 13.521 23.9624 13.5696 23.9148 13.6158L14.2673 22.9891C13.8814 23.364 13.2681 23.3664 12.8792 22.9945L3.48306 14.0075C3.38036 13.9093 3.3048 13.7991 3.25392 13.6832Z" fill="#EBE1DA"/>
</g>
<defs>
<filter id="filter0_i_12_332" x="-2" y="0" width="29" height="25.2719" filterUnits="userSpaceOnUse" color-interpolation-filters="sRGB">
<feFlood flood-opacity="0" result="BackgroundImageFix"/>
<feBlend mode="normal" in="SourceGraphic" in2="BackgroundImageFix" result="shape"/>
<feColorMatrix in="SourceAlpha" type="matrix" values="0 0 0 0 0 0 0 0 0 0 0 0 0 0 0 0 0 0 127 0" result="hardAlpha"/>
<feOffset dx="-2" dy="2"/>
<feGaussianBlur stdDeviation="2"/>
<feComposite in2="hardAlpha" operator="arithmetic" k2="-1" k3="1"/>
<feColorMatrix type="matrix" values="0 0 0 0 0.744987 0 0 0 0 0.744987 0 0 0 0 0.744987 0 0 0 1 0"/>
<feBlend mode="normal" in2="shape" result="effect1_innerShadow_12_332"/>
</filter>
</defs>
</svg>
